<?xml version="1.0" encoding="UTF-8"?>
<!DOCTYPE svg PUBLIC "-//W3C//DTD SVG 1.0//EN" "http://www.w3.org/TR/2001/REC-SVG-20010904/DTD/svg10.dtd">
<!-- Creator: CorelDRAW -->
<svg xmlns="http://www.w3.org/2000/svg" xml:space="preserve" width="109.58mm" height="16.905mm" version="1.0" style="shape-rendering:geometricPrecision; text-rendering:geometricPrecision; image-rendering:optimizeQuality; fill-rule:evenodd; clip-rule:evenodd"
viewBox="0 0 3046.15 469.93"
 xmlns:xlink="http://www.w3.org/1999/xlink"
 xmlns:xodm="http://www.corel.com/coreldraw/odm/2003">
 <defs>
  <style type="text/css">
   <![CDATA[
    .fil1 {fill:#E31E24}
    .fil2 {fill:#0023C4}
    .fil0 {fill:#2B2A29;fill-rule:nonzero}
   ]]>
  </style>
 </defs>
 <g id="Слой_x0020_1">
  <metadata id="CorelCorpID_0Corel-Layer"/>
  <g id="_1548050896864">
   <g>
    <path class="fil0" d="M663.08 365.19l-66.5 0 0 -218.72c0,-26.6 12.93,-39.9 39.16,-39.9l177.35 0 0 51.72 -132.64 0c-6.28,0 -10.72,1.11 -13.3,3.69 -2.59,2.59 -4.06,7.39 -4.06,13.67l0 34.36 113.06 0 0 51.72 -113.06 0 0 103.45z"/>
    <path class="fil0" d="M783.53 365.19l96.43 -231.29c4.43,-10.71 10.35,-18.47 17.74,-23.27 7.02,-4.81 18.11,-7.02 33.25,-7.02 12.93,0 23.28,2.22 31.4,6.28 7.76,4.06 14.41,12.19 19.21,24.01l96.8 231.29 -69.83 0 -23.28 -59.11 -108.99 0 -23.28 59.11 -69.46 0zm141.87 -191.38l-32.88 82.02 76.48 0 -32.89 -82.02c-1.85,-5.54 -3.69,-8.13 -5.17,-8.13 -1.85,0 -3.69,2.59 -5.54,8.13zm209.12 -67.24l69.09 192.13c1.11,3.69 2.95,5.54 5.17,5.54 1.85,0 3.33,-1.85 5.17,-5.54l69.09 -192.13 70.94 0 -92 226.85c-4.43,10.71 -10.71,19.21 -18.47,25.49 -7.76,6.28 -19.58,9.24 -34.73,9.24 -26.23,0 -44.34,-11.45 -53.57,-34.73l-91.63 -226.85 70.94 0zm447.8 258.63l-192.12 0c-3.7,0 -6.65,0 -9.24,-0.37 -2.59,0 -6.28,-0.74 -10.71,-1.85 -4.43,-1.11 -8.13,-2.59 -10.72,-4.43 -2.59,-1.85 -5.17,-5.17 -7.02,-9.24 -2.22,-4.06 -3.32,-8.87 -3.32,-14.41 0,-15.52 6.65,-29.93 20.32,-43.6l121.92 -121.92c2.95,-2.95 4.44,-5.54 4.44,-7.39 0,-2.59 -2.22,-3.69 -7.02,-3.69l-128.95 0 0 -51.72 193.24 0c21.8,0 32.51,10.35 32.51,30.67 0,6.28 -1.11,12.19 -2.95,17.36 -1.85,5.17 -4.06,8.87 -5.92,11.46 -2.22,2.59 -5.54,6.28 -9.6,10.34l-126.36 127.47c-2.59,2.59 -3.69,4.43 -3.69,5.91 0,2.59 1.48,3.69 4.44,3.69l140.77 0 0 51.72z"/>
    <path class="fil0" d="M1930.37 365.19l-46.55 0 -119.34 -99.39c-11.82,-9.97 -17.73,-21.06 -17.73,-33.62 0,-9.97 5.17,-19.21 15.88,-28.45l109.36 -97.17 44.71 0 -121.93 106.78c-0.74,0.74 -1.85,1.85 -3.69,3.33 -1.85,1.48 -3.32,2.59 -4.06,3.32 -1.11,1.11 -2.22,2.22 -3.32,3.32 -1.11,1.48 -2.22,2.95 -2.59,4.43 -0.37,1.48 -0.74,2.95 -0.74,4.43 0,6.28 5.91,14.04 17.37,23.28l132.64 109.73zm-232.03 0l0 -258.63 34.36 0 0 258.63 -34.36 0zm444.47 0l-161.09 0c-21.8,0 -32.88,-10.34 -32.88,-31.03l0 -227.59 34.36 0 0 215.03c0,5.91 1.11,9.98 3.69,12.19 2.22,2.22 6.29,3.32 12.56,3.32l143.35 0 0 28.08zm58.38 0l-34.36 0 0 -258.63 34.36 0 0 258.63zm310.36 -218.35l-77.22 191.75c-4.06,10.34 -8.5,17.74 -12.56,22.54 -4.43,4.8 -10.71,7.02 -18.84,7.02 -8.13,0 -14.41,-2.22 -18.84,-7.02 -4.43,-4.8 -8.87,-12.2 -12.93,-22.54l-76.85 -191.75c-2.22,-5.54 -4.44,-8.13 -6.65,-8.13 -3.33,0 -4.8,2.59 -4.8,7.39l0.74 219.09 -34.36 0 0 -232.39c0,-9.24 2.96,-16.63 8.87,-21.8 5.54,-4.81 13.67,-7.39 24.02,-7.39 9.97,0 17.74,2.59 22.91,7.39 5.17,4.8 9.97,12.19 14.04,22.16l77.22 191.39c2.22,5.91 4.43,8.87 6.65,8.87 2.22,0 4.43,-2.95 6.65,-8.87l77.22 -191.39c4.06,-9.97 8.5,-17.36 13.67,-22.16 5.17,-4.81 12.93,-7.39 22.91,-7.39 10.34,0 18.47,2.59 24.39,7.39 5.91,5.17 8.86,12.56 8.86,21.8l0 232.39 -34.36 0 0.74 -219.09c0,-4.8 -1.48,-7.39 -4.8,-7.39 -2.22,0 -4.43,2.59 -6.65,8.13zm65.39 218.35l98.28 -233.13c4.07,-9.97 8.87,-16.99 14.04,-21.8 5.17,-4.44 12.19,-6.65 21.43,-6.65 8.86,0 16.25,2.22 21.8,7.02 5.54,4.8 9.97,11.82 14.04,21.43l97.91 233.13 -36.21 0 -29.19 -70.2 -137.07 0 -28.82 70.2 -36.21 0zm124.88 -216.88l-49.51 118.6 116.38 0 -48.77 -118.6c-3.69,-8.5 -6.65,-12.56 -9.23,-12.56 -0.74,0 -1.48,0 -1.85,0.37 -0.74,0.37 -1.48,1.11 -1.85,1.48 -0.37,0.74 -1.11,1.48 -1.48,2.59 -0.74,1.11 -1.11,1.85 -1.48,2.59 -0.37,0.74 -0.74,1.85 -1.11,2.95 -0.37,1.11 -0.74,2.22 -1.11,2.59z"/>
    <path class="fil0" d="M2941.59 365.19l-34.36 0 0 -230.55 -104.56 0 0 -28.08 243.48 0 0 28.08 -104.56 0 0 230.55z"/>
   </g>
   <path class="fil1" d="M181.78 469.82c-29.78,-6.97 -57.44,-19.45 -81.84,-36.3 7.87,-17.84 15.38,-35.88 23.44,-53.75 2.6,-5.75 25.78,-58.27 25.73,-59.31l-114.97 45.23c-15.97,-24.7 -27.55,-52.49 -33.63,-82.3l114.49 -45.13c-1.22,-0.86 -60.67,-26.01 -62.18,-26.67 -10.31,-4.46 -20.82,-8.94 -31.22,-13.33l-21.6 -9.28c5.75,-29.88 17.01,-57.79 32.69,-82.65 3.67,1.58 7.71,3.37 9.08,3.93 25.56,10.54 53.18,22.61 78.73,33.63l31.7 13.46 -52.98 -120.65c24.38,-16.97 52.03,-29.55 81.83,-36.61 1.57,3.51 3.12,7.19 4.56,10.58 6.25,14.7 13.33,30.23 19.77,44.94l26.71 60.73 -15.14 34.17c-38.33,9 -66.87,43.4 -66.87,84.48 0,41 28.44,75.36 66.67,84.43l15.48 34.95 -0.01 0.01c-0.02,0.04 -41.22,93.79 -50.46,115.43zm54.87 -343.15l0.01 0.03 -9.72 22.1 -0.1 0.01 9.81 -22.14z"/>
   <path class="fil2" d="M373.49 433.78c-7.91,-17.91 -15.45,-36.05 -23.56,-54.01 -2.6,-5.75 -25.79,-58.27 -25.73,-59.31l115.37 45.38c15.99,-24.69 27.59,-52.48 33.7,-82.27l-114.94 -45.3c1.23,-0.87 60.66,-26.01 62.18,-26.67 10.3,-4.46 20.82,-8.94 31.22,-13.33l22.05 -9.47c-5.78,-29.87 -17.06,-57.77 -32.75,-82.62 -3.78,1.61 -8.05,3.51 -9.46,4.09 -25.56,10.54 -53.18,22.61 -78.73,33.63l-31.7 13.46 53.09 -120.91c-24.4,-16.92 -52.08,-29.46 -81.89,-36.46 -1.59,3.55 -3.16,7.27 -4.61,10.69 -6.25,14.69 -13.33,30.22 -19.77,44.93l-31.27 71.08 -12.63 28.7 -0 0 -28.31 64.36c-1.09,2.54 -2.19,4.9 -3.28,7.51 -4.2,10.02 -4.38,5.46 -0.48,14.79 5.03,12.03 11.23,25.34 16.42,37.48 2.15,5.03 4.33,10.08 6.55,15.03 8.96,19.96 17.25,39.85 26.16,59.82 0.01,0.04 41.35,94.11 50.5,115.53 29.8,-6.91 57.48,-19.34 81.91,-36.15z"/>
   <path class="fil2" d="M373.49 433.78c-7.91,-17.91 -15.45,-36.05 -23.56,-54.01 -2.6,-5.75 -25.79,-58.27 -25.73,-59.31l115.37 45.38c15.99,-24.69 27.59,-52.48 33.7,-82.27l-114.94 -45.3c1.23,-0.87 60.66,-26.01 62.18,-26.67 10.3,-4.46 20.82,-8.94 31.22,-13.33l22.05 -9.47c-5.78,-29.87 -17.06,-57.77 -32.75,-82.62 -3.78,1.61 -8.05,3.51 -9.46,4.09 -25.56,10.54 -53.18,22.61 -78.73,33.63l-31.7 13.46 53.09 -120.91c-24.4,-16.92 -52.08,-29.46 -81.89,-36.46 -1.59,3.55 -3.16,7.27 -4.61,10.69 -6.25,14.69 -13.33,30.22 -19.77,44.93l-31.27 71.08 -12.63 28.7 -0 0 -28.31 64.36c-1.09,2.54 -2.19,4.9 -3.28,7.51 -4.2,10.02 -4.38,5.46 -0.48,14.79 5.03,12.03 11.23,25.34 16.42,37.48 2.15,5.03 4.33,10.08 6.55,15.03 8.96,19.96 17.25,39.85 26.16,59.82 0.01,0.04 41.35,94.11 50.5,115.53 29.8,-6.91 57.48,-19.34 81.91,-36.15z"/>
  </g>
 </g>
</svg>
